# xmcd
#
# Track frame offsets:
#   154
#   18386
#   25534
#   35186
#   52121
#   66019
#   94779
#   110384
#   125006
#   133749
#   148661
#
# Disc length: 2253 seconds
#
# Revision: 0
# Processed by: cddbd v1.5.2PL0 Copyright (c) Steve Scherf et al.
# Submitted via: uFREEDB ActiveX Control 1.5
#
DISCID=9d08cb0b
DTITLE=Vidal França e Mazé - Sertão e Mar
DYEAR=1900
DGENRE=Country
TTITLE0=O Mar
TTITLE1=Moxotó
TTITLE2=Forró em Limoeiro
TTITLE3=Glória in Excelsis
TTITLE4=Esse Mar Vai Dar na Bahia
TTITLE5=Jequitibá
TTITLE6=Desenredo
TTITLE7=Luar do Sertão
TTITLE8=Dança das Borboletas
TTITLE9=Marcha das Abelhas
TTITLE10=Asa Branca
EXTD=
EXTT0=
EXTT1=
EXTT2=
EXTT3=
EXTT4=
EXTT5=
EXTT6=
EXTT7=
EXTT8=
EXTT9=
EXTT10=
PLAYORDER=
